<svg width="130" height="130" viewBox="0 0 130 130" fill="none" xmlns="http://www.w3.org/2000/svg">
<g clip-path="url(#clip0_877_26)">
<path d="M33.5241 99.3926C31.827 97.6956 30.7428 96.1399 30.2714 94.7257C29.8943 93.4058 29.9414 92.133 30.4128 90.9074C31.0728 89.6817 32.0156 88.456 33.2412 87.2304L86.6985 33.7731C88.0185 32.4532 89.2441 31.5104 90.3755 30.9447C91.6011 30.4733 92.8739 30.4261 94.1939 30.8033C95.6081 31.2747 97.1637 32.3589 98.8608 34.056C100.652 35.8473 101.689 37.4501 101.972 38.8643C102.349 40.1842 102.208 41.457 101.548 42.6827C100.982 43.814 100.086 44.9925 98.8608 46.2182L45.6863 99.3926C44.4607 100.618 43.235 101.561 42.0094 102.221C40.7837 102.881 39.5109 103.022 38.191 102.645C36.8711 102.268 35.3154 101.184 33.5241 99.3926ZM33.2412 45.9354C32.0156 44.7097 31.0728 43.5783 30.4128 42.5412C29.8471 41.4099 29.7057 40.1371 29.9886 38.7229C30.46 37.3087 31.5442 35.753 33.2413 34.056C35.1269 32.1703 36.7296 31.039 38.0496 30.6619C39.3695 30.2847 40.6423 30.4261 41.868 31.0861C43.0936 31.7461 44.2721 32.6417 45.4035 33.7731L99.0022 87.3718C100.228 88.5975 101.124 89.776 101.689 90.9074C102.349 92.133 102.396 93.4058 101.831 94.7257C101.453 96.0457 100.369 97.6013 98.5779 99.3926C96.7866 101.184 95.2309 102.268 93.911 102.645C92.5911 103.022 91.3654 102.928 90.2341 102.362C89.197 101.703 88.0656 100.76 86.8399 99.5341L33.2412 45.9354Z" fill="#828287"/>
</g>
<defs>
<clipPath id="clip0_877_26">
<rect width="130" height="130" rx="5" fill="white"/>
</clipPath>
</defs>
</svg>
