<svg width="130" height="130" viewBox="0 0 130 130" fill="none" xmlns="http://www.w3.org/2000/svg">
<g clip-path="url(#clip0_877_23)">
<path d="M63.8 111C61.4 111 59.5333 110.667 58.2 110C57 109.333 56.1333 108.4 55.6 107.2C55.2 105.867 55 104.333 55 102.6V27C55 25.1333 55.2 23.6 55.6 22.4C56.1333 21.2 57 20.2667 58.2 19.6C59.5333 18.9333 61.4 18.6 63.8 18.6C66.3333 18.6 68.2 19 69.4 19.8C70.6 20.4667 71.4 21.4667 71.8 22.8C72.2 24 72.4 25.4667 72.4 27.2V102.4C72.4 104.133 72.2 105.667 71.8 107C71.4 108.333 70.6 109.333 69.4 110C68.2 110.667 66.3333 111 63.8 111ZM25.8 73.4C24.0667 73.4 22.6 73.2667 21.4 73C20.2 72.6 19.2 71.8 18.4 70.6C17.7333 69.2667 17.4 67.4 17.4 65C17.4 62.3333 17.7333 60.4 18.4 59.2C19.0667 58 20.0667 57.2 21.4 56.8C22.7333 56.4 24.2 56.2 25.8 56.2H101.6C103.333 56.2 104.8 56.4 106 56.8C107.333 57.2 108.267 58.0667 108.8 59.4C109.467 60.6 109.8 62.4667 109.8 65C109.8 67.5333 109.467 69.4 108.8 70.6C108.133 71.8 107.2 72.6 106 73C104.8 73.2667 103.333 73.4 101.6 73.4H25.8Z" fill="#828287"/>
</g>
<defs>
<clipPath id="clip0_877_23">
<rect width="130" height="130" rx="5" fill="white"/>
</clipPath>
</defs>
</svg>
